<?xml version="1.0" encoding="UTF-8"?>
<svg width="95px" height="35px" viewBox="0 0 95 35" version="1.1" xmlns="http://www.w3.org/2000/svg" xmlns:xlink="http://www.w3.org/1999/xlink">
    <!-- Generator: Sketch 50.2 (55047) - http://www.bohemiancoding.com/sketch -->
    <title>Transportation/Airplane</title>
    <desc>Created with Sketch.</desc>
    <defs>
        <linearGradient x1="100.005689%" y1="49.9617875%" x2="0.00746266854%" y2="49.9617875%" id="linearGradient-1">
            <stop stop-color="#00FFEC" offset="0%"></stop>
            <stop stop-color="#1B7B95" offset="100%"></stop>
        </linearGradient>
    </defs>
    <g id="Symbols" stroke="none" stroke-width="1" fill="none" fill-rule="evenodd">
        <g id="LEFT-MARGIN" transform="translate(-146.000000, -391.000000)" fill="url(#linearGradient-1)" fill-rule="nonzero">
            <g id="Transportation/Airplane" transform="translate(146.000000, 391.000000)">
                <path d="M92.8244522,25.8741532 C92.070548,25.499437 90.355416,24.6375898 89.9030735,24.3565526 C89.450731,24.0567797 89.1303217,23.925629 87.8863798,23.0825176 C86.6424379,22.2394061 85.1723248,21.3026156 83.0425455,20.8529562 C80.9127662,20.384561 74.5422758,19.3353556 70.4523457,19.2604124 L31.833604,18.5297158 L19.8276799,14.8949687 L7.5013466,0.0936790485 L2.28056015,0 L7.01130888,18.3423577 C7.01130888,18.3423577 3.7506733,17.5554537 3.41141642,17.5179821 C3.07215954,17.4805105 1.01777064,17.4617746 0.565428135,17.4617746 C0.113085627,17.4617746 0,17.5554537 0,17.6678686 C0,17.7802834 0.131933232,17.8552267 0.339256881,18.0051131 C0.546580531,18.1549996 3.07215954,19.6163928 3.48680683,19.8786941 C3.90145413,20.1409954 3.97684455,20.1222596 3.97684455,20.1222596 L4.56112029,22.5017075 C4.56112029,22.5017075 13.6456657,25.7242667 19.7522895,27.6353193 C25.877761,29.5463719 31.6074328,30.6143131 33.6618217,30.8953502 C35.7162105,31.1763874 38.6752845,31.1763874 38.6752845,31.1763874 L40.1830928,31.213859 L40.1830928,31.6635184 C40.1830928,31.6635184 40.3715689,31.4761603 40.7296733,31.3824813 L40.7296733,32.1506495 C40.032312,32.3005359 39.5045791,32.9375535 39.5045791,33.6869859 C39.5045791,34.5488331 40.220788,35.2607939 41.0877778,35.2607939 C41.9547676,35.2607939 42.6709766,34.5488331 42.6709766,33.6869859 C42.6709766,32.9562893 42.1620913,32.3567434 41.4835775,32.1693853 L41.4835775,31.4012171 C41.841682,31.4948961 42.0113105,31.70099 42.0113105,31.70099 L42.0113105,31.2513306 L46.9116876,31.3450096 L48.8341433,32.0194988 L48.8152957,32.8438744 C48.8152957,32.8438744 50.0780852,33.0874399 50.9639226,33.1998548 C51.84976,33.3122697 52.5094262,33.3684771 54.1680154,33.4059487 C55.8266046,33.4434203 56.6558992,33.3872129 57.0328512,33.3310055 C57.4286509,33.2560622 57.9752315,33.0687041 58.1637075,32.8064028 C58.3521836,32.5441015 58.3710312,32.394215 58.3710312,32.2443285 C58.3710312,32.094442 58.3710312,31.4574245 58.3710312,31.4574245 L58.8233737,31.4574245 C58.8233737,31.4574245 77.3128737,31.5136319 81.9116892,31.5698394 L81.8928416,32.8626102 C81.3274135,32.9750251 80.9127662,33.4434203 80.8939186,34.0242304 C80.875071,34.6987196 81.4216515,35.2795297 82.1190129,35.2795297 C82.7975266,35.2982655 83.3818024,34.754927 83.3818024,34.061702 C83.40065,33.4808919 82.9860027,33.0124967 82.4394221,32.8626102 L82.4394221,32.3380076 L85.8696862,32.394215 C85.8696862,32.394215 86.2277906,32.394215 86.5481999,32.3005359 C86.8686092,32.2068569 87.1324757,31.9820272 87.1324757,31.9820272 L87.1513233,31.1389157 C88.6214364,30.8766144 89.9973115,30.520634 91.0339298,30.127182 C92.6359762,29.5276361 94.6903651,28.6657889 94.7092127,27.7102626 C94.7280603,26.7547363 93.5783564,26.2676052 92.8244522,25.8741532 Z M29.4399582,24.2628736 C29.4399582,24.6001181 29.1572442,24.8624195 28.8179873,24.8624195 C28.4787304,24.8624195 28.214864,24.5813823 28.214864,24.2441378 L28.2337116,22.838952 C28.2337116,22.5017075 28.5164256,22.2394061 28.8556825,22.2394061 C29.1949394,22.2394061 29.4588059,22.5204433 29.4588059,22.8576878 L29.4399582,24.2628736 Z M31.2116331,24.3003452 C31.2116331,24.6375898 30.928919,24.8998911 30.5896621,24.8998911 C30.2504052,24.8998911 29.9865388,24.618854 29.9865388,24.2816094 L30.0053864,22.8764237 C30.0053864,22.5391791 30.2881004,22.2768777 30.6273573,22.2768777 C30.9666142,22.2768777 31.2304807,22.5579149 31.2304807,22.8951595 L31.2116331,24.3003452 Z M32.9833079,24.3378168 C32.9833079,24.6750614 32.7005938,24.9373627 32.3613369,24.9373627 C32.0220801,24.9373627 31.7582136,24.6563256 31.7582136,24.319081 L31.7770612,22.9138953 C31.7770612,22.5766507 32.0597753,22.3143494 32.3990322,22.3143494 C32.738289,22.3143494 33.0021555,22.5953865 33.0021555,22.9326311 L32.9833079,24.3378168 Z M34.7549827,24.3752884 C34.7549827,24.712533 34.4722687,24.9748343 34.1330118,24.9748343 C33.7937549,24.9748343 33.5298884,24.6937972 33.5298884,24.3565526 L33.548736,22.9513669 C33.548736,22.6141223 33.8314501,22.351821 34.170707,22.351821 C34.5099639,22.351821 34.7738303,22.6328581 34.7738303,22.9701027 L34.7549827,24.3752884 Z M36.5266575,24.3940242 C36.5266575,24.7312688 36.2439435,24.9935701 35.9046866,24.9935701 C35.5654297,24.9935701 35.3015632,24.712533 35.3015632,24.3752884 L35.3204109,22.9701027 C35.3204109,22.6328581 35.6031249,22.3705568 35.9423818,22.3705568 C36.2816387,22.3705568 36.5455051,22.6515939 36.5455051,22.9888385 L36.5266575,24.3940242 Z M38.2983324,24.4314959 C38.2983324,24.7687404 38.0156183,25.0310418 37.6763614,25.0310418 C37.3371045,25.0310418 37.0732381,24.7500046 37.0732381,24.41276 L37.0920857,23.0075743 C37.0920857,22.6703297 37.3747997,22.4080284 37.7140566,22.4080284 C38.0533135,22.4080284 38.31718,22.6890656 38.31718,23.0263101 L38.2983324,24.4314959 Z M40.0700072,24.4689675 C40.0700072,24.8062121 39.7872931,25.0685134 39.4480362,25.0685134 C39.1087794,25.0685134 38.8449129,24.7874762 38.8449129,24.4502317 L38.8637605,23.0450459 C38.8637605,22.7078014 39.1464746,22.4455 39.4857315,22.4455 C39.8249883,22.4455 40.0888548,22.7265372 40.0888548,23.0637817 L40.0700072,24.4689675 Z M41.841682,24.5064391 C41.841682,24.8436837 41.5589679,25.105985 41.2197111,25.105985 C40.8804542,25.105985 40.6165877,24.8249479 40.6165877,24.4877033 L40.6354353,23.0825176 C40.6354353,22.745273 40.9181494,22.4829716 41.2574063,22.4829716 C41.5966632,22.4829716 41.8605296,22.7640088 41.8605296,23.1012534 L41.841682,24.5064391 Z M43.5945092,24.5439107 C43.5945092,24.8811553 43.3117952,25.1434566 42.9725383,25.1434566 C42.6332814,25.1434566 42.3694149,24.8624195 42.3694149,24.5251749 L42.3882625,23.1199892 C42.3882625,22.7827446 42.6709766,22.5204433 43.0102335,22.5204433 C43.3494904,22.5204433 43.6133568,22.8014804 43.6133568,23.138725 L43.5945092,24.5439107 Z M45.3661841,24.5626465 C45.3661841,24.8998911 45.08347,25.1621924 44.7442131,25.1621924 C44.4049562,25.1621924 44.1410898,24.8811553 44.1410898,24.5439107 L44.1599374,23.138725 C44.1599374,22.8014804 44.4426514,22.5391791 44.7819083,22.5391791 C45.1211652,22.5391791 45.3850317,22.8202162 45.3850317,23.1574608 L45.3661841,24.5626465 Z M47.1378589,24.6001181 C47.1378589,24.9373627 46.8551448,25.1996641 46.5158879,25.1996641 C46.1766311,25.1996641 45.9127646,24.9186269 45.9127646,24.5813823 L45.9316122,23.1761966 C45.9316122,22.838952 46.2143263,22.5766507 46.5535831,22.5766507 C46.89284,22.5766507 47.1567065,22.8576878 47.1567065,23.1949324 L47.1378589,24.6001181 Z M48.9095337,24.6375898 C48.9095337,24.9748343 48.6268196,25.2371357 48.2875628,25.2371357 C47.9483059,25.2371357 47.6844394,24.9560985 47.6844394,24.618854 L47.703287,23.2136682 C47.703287,22.8764237 47.9860011,22.6141223 48.325258,22.6141223 C48.6645148,22.6141223 48.9283813,22.8951595 48.9283813,23.232404 L48.9095337,24.6375898 Z M50.6812085,24.6750614 C50.6812085,25.012306 50.3984945,25.2746073 50.0592376,25.2746073 C49.7199807,25.2746073 49.4561142,24.9935701 49.4561142,24.6563256 L49.4749618,23.2511398 C49.4749618,22.9138953 49.7576759,22.6515939 50.0969328,22.6515939 C50.4361897,22.6515939 50.7000561,22.9326311 50.7000561,23.2698757 L50.6812085,24.6750614 Z M52.4528834,24.6937972 C52.4528834,25.0310418 52.1701693,25.2933431 51.8309124,25.2933431 C51.4916555,25.2933431 51.2277891,25.012306 51.2277891,24.6750614 L51.2466367,23.2698757 C51.2466367,22.9326311 51.5293507,22.6703297 51.8686076,22.6703297 C52.2078645,22.6703297 52.471731,22.9513669 52.471731,23.2886115 L52.4528834,24.6937972 Z M54.2245582,24.7312688 C54.2245582,25.0685134 53.9418441,25.3308147 53.6025872,25.3308147 C53.2633303,25.3308147 52.9994639,25.0497776 52.9994639,24.712533 L53.0183115,23.3073473 C53.0183115,22.9701027 53.3010256,22.7078014 53.6402824,22.7078014 C53.9795393,22.7078014 54.2434058,22.9888385 54.2434058,23.3260831 L54.2245582,24.7312688 Z M55.996233,24.7687404 C55.996233,25.105985 55.7135189,25.3682863 55.3742621,25.3682863 C55.0350052,25.3682863 54.7711387,25.0872492 54.7711387,24.7500046 L54.7899863,23.3448189 C54.7899863,23.0075743 55.0727004,22.745273 55.4119573,22.745273 C55.7512141,22.745273 56.0150806,23.0263101 56.0150806,23.3635547 L55.996233,24.7687404 Z M57.7679078,24.8062121 C57.7679078,25.1434566 57.4851938,25.405758 57.1459369,25.405758 C56.80668,25.405758 56.5428135,25.1247208 56.5428135,24.7874762 L56.5616611,23.3822905 C56.5616611,23.0450459 56.8443752,22.7827446 57.1836321,22.7827446 C57.522889,22.7827446 57.7867554,23.0637817 57.7867554,23.4010263 L57.7679078,24.8062121 Z M59.5395826,24.8436837 C59.5395826,25.1809282 59.2568686,25.4432296 58.9176117,25.4432296 C58.5783548,25.4432296 58.3144884,25.1621924 58.3144884,24.8249479 L58.333336,23.4197621 C58.333336,23.0825176 58.61605,22.8202162 58.9553069,22.8202162 C59.2945638,22.8202162 59.5584303,23.1012534 59.5584303,23.4384979 L59.5395826,24.8436837 Z M61.3112575,24.8624195 C61.3112575,25.1996641 61.0285434,25.4619654 60.6892865,25.4619654 C60.3500296,25.4619654 60.0861632,25.1809282 60.0861632,24.8436837 L60.1050108,23.4384979 C60.1050108,23.1012534 60.3877249,22.838952 60.7269817,22.838952 C61.0662386,22.838952 61.3301051,23.1199892 61.3301051,23.4572338 L61.3112575,24.8624195 Z M63.0829323,24.8998911 C63.0829323,25.2371357 62.8002182,25.499437 62.4609613,25.499437 C62.1217045,25.499437 61.857838,25.2183999 61.857838,24.8811553 L61.8766856,23.4759696 C61.8766856,23.138725 62.1593997,22.8764237 62.4986566,22.8764237 C62.8379134,22.8764237 63.1017799,23.1574608 63.1017799,23.4947054 L63.0829323,24.8998911 Z M64.8546071,24.9373627 C64.8546071,25.2746073 64.5718931,25.5369086 64.2326362,25.5369086 C63.8933793,25.5369086 63.6295128,25.2558715 63.6295128,24.9186269 L63.6483604,23.5134412 C63.6483604,23.1761966 63.9310745,22.9138953 64.2703314,22.9138953 C64.6095883,22.9138953 64.8734547,23.1949324 64.8734547,23.532177 L64.8546071,24.9373627 Z M66.6262819,24.9748343 C66.6262819,25.3120789 66.3435679,25.5743803 66.004311,25.5743803 C65.6650541,25.5743803 65.4011877,25.2933431 65.4011877,24.9560985 L65.4200353,23.5509128 C65.4200353,23.2136682 65.7027493,22.9513669 66.0420062,22.9513669 C66.3812631,22.9513669 66.6451296,23.232404 66.6451296,23.5696486 L66.6262819,24.9748343 Z M68.3979568,25.012306 C68.3979568,25.3495505 68.1152427,25.6118519 67.7759858,25.6118519 C67.4367289,25.6118519 67.1728625,25.3308147 67.1728625,24.9935701 L67.1917101,23.5883844 C67.1917101,23.2511398 67.4744241,22.9888385 67.813681,22.9888385 C68.1529379,22.9888385 68.4168044,23.2698757 68.4168044,23.6071202 L68.3979568,25.012306 Z M70.1696316,25.0310418 C70.1696316,25.3682863 69.8869175,25.6305877 69.5476606,25.6305877 C69.2084038,25.6305877 68.9445373,25.3495505 68.9445373,25.012306 L68.9633849,23.6071202 C68.9633849,23.2698757 69.246099,23.0075743 69.5853559,23.0075743 C69.9246127,23.0075743 70.1884792,23.2886115 70.1884792,23.625856 L70.1696316,25.0310418 Z M71.9413064,25.0685134 C71.9413064,25.405758 71.6585924,25.6680593 71.3193355,25.6680593 C70.9800786,25.6680593 70.7162121,25.3870222 70.7162121,25.0497776 L70.7350597,23.6445919 C70.7350597,23.3073473 71.0177738,23.0450459 71.3570307,23.0450459 C71.6962876,23.0450459 71.960154,23.3260831 71.960154,23.6633277 L71.9413064,25.0685134 Z M73.6941336,25.105985 C73.6941336,25.4432296 73.4114196,25.7055309 73.0721627,25.7055309 C72.7329058,25.7055309 72.4690393,25.4244938 72.4690393,25.0872492 L72.4878869,23.6820635 C72.4878869,23.3448189 72.770601,23.0825176 73.1098579,23.0825176 C73.4491148,23.0825176 73.7129812,23.3635547 73.7129812,23.7007993 L73.6941336,25.105985 Z M75.4658085,25.1434566 C75.4658085,25.4807012 75.1830944,25.7430025 74.8438375,25.7430025 C74.5045806,25.7430025 74.2407142,25.4619654 74.2407142,25.1247208 L74.2595618,23.7195351 C74.2595618,23.3822905 74.5422758,23.1199892 74.8815327,23.1199892 C75.2207896,23.1199892 75.4846561,23.4010263 75.4846561,23.7382709 L75.4658085,25.1434566 Z M77.2374833,25.1809282 C77.2374833,25.5181728 76.9547692,25.7804742 76.6155123,25.7804742 C76.2762555,25.7804742 76.012389,25.499437 76.012389,25.1621924 L76.0312366,23.7570067 C76.0312366,23.4197621 76.3139507,23.1574608 76.6532075,23.1574608 C76.9924644,23.1574608 77.2563309,23.4384979 77.2563309,23.7757425 L77.2374833,25.1809282 Z M83.8529925,25.0310418 L83.2121739,22.9888385 L85.2477152,23.0263101 L86.6047427,25.105985 L83.8529925,25.0310418 Z M88.9229981,24.7874762 C88.2444843,25.0310418 87.735599,25.105985 87.735599,25.105985 L87.0570852,25.0872492 L85.7189053,23.0263101 L87.1890185,23.0637817 L89.4695786,24.5251749 C89.4884262,24.5251749 89.6015118,24.5439107 88.9229981,24.7874762 Z" id="Airplane"></path>
            </g>
        </g>
    </g>
</svg>